<?xml version="1.0" encoding="UTF-8"?>
<!-- Generator: Adobe Illustrator 25.0.0, SVG Export Plug-In . SVG Version: 6.00 Build 0)  -->
<svg version="1.1" id="Calque_1" xmlns="http://www.w3.org/2000/svg" xmlns:xlink="http://www.w3.org/1999/xlink" x="0px" y="0px" viewBox="0 0 280.34 96.5" style="enable-background:new 0 0 280.34 96.5;" xml:space="preserve">
<style type="text/css">
	.st0{fill:#000100;}
	.st1{fill:#1D1D1B;}
	.st2{fill:none;}
	.st3{enable-background:new    ;}
	.st4{display:none;}
	.st5{display:inline;fill:#FFFFFF;}
	.st6{font-family:'FuturaPT-HeavyObl';}
	.st7{font-size:20px;}
	.st8{display:inline;}
	.st9{fill:#FFFFFF;}
</style>
<g id="_x34_2_logotype__x28_no_editing_x29_">
	<g>
		<polygon class="st0" points="76,0 50.67,0 0,50.66 0,71.17 50.67,71.17 50.67,96.5 76,96.5 76,50.66 25.34,50.66   "/>
		<polygon class="st0" points="86.86,25.33 112.19,0 86.86,0   "/>
		<polygon class="st0" points="137.52,25.33 137.52,0 112.19,0 112.19,25.33 86.86,50.66 86.86,75.99 112.19,75.99 112.19,50.66       "/>
		<polygon class="st0" points="137.52,50.66 112.19,75.99 137.52,75.99   "/>
	</g>
	<rect x="162" y="50.73" class="st1" width="2" height="25.19"/>
</g>
<g id="Campus_name">
	<rect x="172.52" y="54.76" class="st2" width="107.82" height="15.35"/>
	<g class="st3">
		<path d="M178.64,56l-1.32,10.74h4.16l-0.32,2.6h-7.24L175.56,56H178.64z"/>
		<path d="M191.54,66.82h-5.04l-1.26,2.52h-3.32L188.96,56h2.84l3.58,13.34h-3.16L191.54,66.82z M190.98,64.46l-1.08-4.7l-2.24,4.7    H190.98z"/>
		<path d="M201.1,56l-0.88,7.28c-0.06,0.42-0.1,0.6-0.1,1.16c0,0.54,0.08,1.22,0.58,1.72c0.36,0.34,0.94,0.6,1.76,0.6    c1,0,1.62-0.32,1.96-0.66c0.66-0.66,0.8-1.78,0.9-2.54l0.92-7.56h3.08l-0.96,7.76c-0.2,1.6-0.38,3.22-1.58,4.44    c-1.34,1.38-3.28,1.44-4.38,1.44c-1.32,0-3-0.16-4.22-1.38c-0.84-0.82-1.18-1.84-1.18-3.08c0-0.6,0.1-1.56,0.16-2.1l0.86-7.08    H201.1z"/>
		<path d="M218.74,59.26c-0.84-0.76-1.64-0.96-2.24-0.96c-0.38,0-0.92,0.06-1.26,0.34c-0.28,0.22-0.46,0.6-0.46,0.96    c0,0.4,0.18,0.68,0.46,0.9c0.28,0.24,0.64,0.4,1.3,0.7l0.78,0.36c0.64,0.3,1.24,0.64,1.76,1.28c0.48,0.6,0.68,1.22,0.68,2.08    c0,1.4-0.56,2.64-1.34,3.42c-1.08,1.06-2.46,1.3-3.82,1.3c-0.98,0-1.76-0.12-2.66-0.6c-0.66-0.36-1.3-0.9-1.78-1.42l1.72-2.2    c0.28,0.38,0.72,0.8,1.12,1.06c0.42,0.26,0.98,0.44,1.56,0.44c0.46,0,1.1-0.14,1.48-0.42c0.36-0.28,0.56-0.74,0.56-1.24    c0-0.48-0.22-0.76-0.38-0.92c-0.1-0.1-0.36-0.32-1.06-0.6l-0.78-0.32c-0.22-0.08-1.24-0.52-1.88-1.18    c-0.64-0.66-0.88-1.42-0.88-2.26c0-1.38,0.56-2.38,1.2-3.02c1.08-1.06,2.46-1.26,3.6-1.26c1.14,0,2.46,0.22,3.86,1.32    L218.74,59.26z"/>
		<path d="M229.86,66.82h-5.04l-1.26,2.52h-3.32L227.28,56h2.84l3.58,13.34h-3.16L229.86,66.82z M229.3,64.46l-1.08-4.7l-2.24,4.7    H229.3z"/>
		<path d="M235.14,69.34L236.8,56h2.68l6.14,8.68L246.7,56h3.08l-1.64,13.34h-2.68l-6.18-8.72l-1.06,8.72H235.14z"/>
		<path d="M251.06,69.34L252.72,56h2.68l6.14,8.68l1.08-8.68h3.08l-1.64,13.34h-2.68l-6.18-8.72l-1.06,8.72H251.06z"/>
		<path d="M275.66,58.6h-4.36l-0.32,2.58h4.2l-0.32,2.6h-4.2l-0.36,2.96h4.44l-0.32,2.6h-7.44L268.62,56h7.36L275.66,58.6z"/>
	</g>
</g>
<g id="Campus_name_1_" class="st4">
	<rect x="172.52" y="54.76" class="st5" width="107.82" height="15.35"/>
	<text transform="matrix(1 0 0 1 172.5168 69.3434)" class="st5 st6 st7">LAUSANNE</text>
</g>
<g id="_x34_2_logotype__x28_no_editing_x29__1_" class="st4">
	<g class="st8">
		<polygon class="st9" points="76,0 50.67,0 0,50.66 0,71.17 50.67,71.17 50.67,96.5 76,96.5 76,50.66 25.34,50.66   "/>
		<polygon class="st9" points="86.86,25.33 112.19,0 86.86,0   "/>
		<polygon class="st9" points="137.52,25.33 137.52,0 112.19,0 112.19,25.33 86.86,50.66 86.86,75.99 112.19,75.99 112.19,50.66       "/>
		<polygon class="st9" points="137.52,50.66 112.19,75.99 137.52,75.99   "/>
	</g>
	<rect x="162" y="50.73" class="st5" width="2" height="25.19"/>
</g>
</svg>