/* XPM */
static char * player_03_xpm[] = {
"48 48 35 1",
" 	c None",
".	c #9C5369",
"+	c #E07993",
"@	c #534721",
"#	c #FFA3B0",
"$	c #FECBD0",
"%	c #FFD600",
"&	c #FFFC00",
"*	c #E3B700",
"=	c #C79D00",
"-	c #FF2627",
";	c #C70000",
">	c #FFE1AF",
",	c #EEBE93",
"'	c #5A2853",
")	c #9D704C",
"!	c #CECECE",
"~	c #181626",
"{	c #CCD0CE",
"]	c #F4F4F4",
"^	c #828189",
"/	c #D7906E",
"(	c #9F17AD",
"_	c #5F5F5F",
":	c #A0A0A0",
"<	c #C2C2C2",
"[	c #E8E8E8",
"}	c #1D796D",
"|	c #15454A",
"1	c #2EB545",
"2	c #3DFD67",
"3	c #2BB68E",
"4	c #6DFFA3",
"5	c #2F2F2F",
"6	c #132529",
"                                                ",
"                                                ",
"                                                ",
"                                                ",
"                                                ",
"                                                ",
"                                                ",
"                                                ",
"              ....    .....                     ",
"             .++++....+++++... @                ",
"            .+####+.#$#####$@+@%@               ",
"           .+$###$#.$######@&@%*=@              ",
"           .##$$$#+.$#####@&-**;=@              ",
"           .###$#+.#$$####%**####+.             ",
"           .#####.###$$$$$$$######.             ",
"           .#####.##############+#+.            ",
"          .+####+.#####+##+##+##+#+.            ",
"          .+####.###+#+###+##+##+++.            ",
"          .+###+.##++++##+++++++++.             ",
"          .++##+.#++@@+#+>>>>>,,@.              ",
"          .++#++.#+@>,++>''''>>,@               ",
"          .++#++.++@>)+>''!~{>>,@               ",
"          .+++++.++@,)+>>']~^>>/@               ",
"          .++++..+++@/+>>>>((>,)@               ",
"           .+++...++.//,>>>>>,/@                ",
"           .++. .+..))//,,,//)@                 ",
"           .+.  .+__::@@@@@@@@                  ",
"           .+.   _<[[}}|12>>,@                  ",
"            .   _:[<}3[<:244215                 ",
"                _:<[[[3|3333}|5                 ",
"               6|<[2}36}}}|||6                  ",
"               63[>>1@122442}|                  ",
"               63[>>/@|||21}215                 ",
"              66}<//@|}}}33}<::_                ",
"           __66|}<@@|}}33333[[<:_               ",
"          _:6||}3[<_||}33333<<<::_              ",
"           _:_}33[[_||}}333[[[[<:_              ",
"            _:<[[<_||||}}33[[[<:_               ",
"                                                ",
"                                                ",
"                                                ",
"                                                ",
"                                                ",
"                                                ",
"                                                ",
"                                                ",
"                                                ",
"                                                "};
