/* XPM */
static char * player_04_xpm[] = {
"48 48 14 1",
" 	c None",
".	c #9C5369",
"+	c #E07993",
"@	c #FFA3B0",
"#	c #FECBD0",
"$	c #FFFFFF",
"%	c #132529",
"&	c #A0A0A0",
"*	c #15454A",
"=	c #1D796D",
"-	c #C2C2C2",
";	c #2BB68E",
">	c #E8E8E8",
",	c #5F5F5F",
"                                                ",
"                                                ",
"                                                ",
"                                                ",
"                                                ",
"                                                ",
"                                                ",
"                                                ",
"                                                ",
"              ...     .....     ...             ",
"             .+++. ...+++++... .+++.            ",
"            .+@@@+.+@#@@@@@#@+.+@@@+.           ",
"            .#@@#+.@#@@@@@@@#@.+#@@#.           ",
"           .+@##@+.##@@@@@@@##.+@##@+.          ",
"           .@@#@+.@###@@@@@###@.@@#@@.          ",
"           .@@@@.+@@#########@@.@@@@@.          ",
"           .@@@@.@@@@#######@@@.@@@@@.          ",
"           .@@@@.@@@@@@@@@@@@@@.@@@@@.          ",
"          .+@@@.+@@@@@@@@@@@@@@.@@@@.           ",
"          .+@@@.+@+@@@@@@@@@@@+.@@@@.           ",
"          .+@@+.+++@@@@@@@@@@@+.@@@+.           ",
"          .+@@+.++++@@@@+@@@@++.@@@+.           ",
"          .+@++..++++@@+++@@+++.@@++.           ",
"          .+@++..++++++++++++++.+@+.            ",
"          .+++.$$..+++++++++++..+@+.            ",
"          .+++.%%&&..+++++++..&.+++.            ",
"          .+++.*=&-&&.......&&-&.++.            ",
"          .++.%=;&->--&&&&&-->-&.+++.           ",
"          .+.%*=;=&->>>>>>>>>-&=;.++.           ",
"          .+.%*=;=*&->>>>>>>-&*=;;.+.           ",
"          .. %====**&-->>>--&**=;;;..           ",
"          .  %===*====&&&&&==*=;;;;=.           ",
"            %**=====;;=***=;===;;;=**,          ",
"           ,%*=;==;;;;;;;;;;==;;;=***,          ",
"          ,&*=;;;=;;;;;;;;;;=;;=;****&,         ",
"         ,&>=;;;;;;;;;;;;;;=;;;==*=*-&,         ",
"         ,&->;;;;;==;;;;;;;;;;====-&&,          ",
"          ,&->>;;=====;;;;;;====--&,,           ",
"           ,,&&--->>>>>>>-----&&&,,             ",
"                                                ",
"                                                ",
"                                                ",
"                                                ",
"                                                ",
"                                                ",
"                                                ",
"                                                ",
"                                                "};
