/* XPM */
static char * collectible_01_xpm[] = {
"48 48 5 1",
" 	c None",
".	c #3452B3",
"+	c #358EE4",
"@	c #7BC6F8",
"#	c #F1F1F1",
"                                                ",
"                                                ",
"                                                ",
"                                                ",
"                                                ",
"                                                ",
"                                                ",
"                                                ",
"                                                ",
"                                                ",
"                                                ",
"                 ..++++++++..                   ",
"                 ..++++++++..                   ",
"             ....++@@@@@@@@@@++..               ",
"             ....++@@@@@@@@@@++..               ",
"           ++@@++@@##@@@@@@##@@++..             ",
"           ++@@++@@##@@@@@@##@@++..             ",
"         ..@@##++@@####@@####@@++....           ",
"         ..@@##++@@####@@####@@++....           ",
"         ++####@@++@@######@@++......           ",
"         ++####@@++@@######@@++......           ",
"         ++######@@++++++++++........           ",
"         ++######@@++++++++++........           ",
"         ..@@##@@++##@@++++@@++......           ",
"         ..@@##@@++##@@++++@@++......           ",
"           ++@@@@######++@@@@@@++..             ",
"           ++@@@@######++@@@@@@++..             ",
"             ++@@######++@@@@++..               ",
"             ++@@######++@@@@++..               ",
"               ++@@####++@@@@..                 ",
"               ++@@####++@@@@..                 ",
"                 ++@@##++@@..                   ",
"                 ++@@##++@@..                   ",
"                   ..@@++..                     ",
"                   ..@@++..                     ",
"                     ....                       ",
"                     ....                       ",
"                                                ",
"                                                ",
"                                                ",
"                                                ",
"                                                ",
"                                                ",
"                                                ",
"                                                ",
"                                                ",
"                                                ",
"                                                "};
