/* XPM */
static char * player_02_xpm[] = {
"48 48 36 1",
" 	c None",
".	c #9C5369",
"+	c #534721",
"@	c #E07993",
"#	c #FFD600",
"$	c #FECBD0",
"%	c #FFA3B0",
"&	c #C79D00",
"*	c #E3B700",
"=	c #FFFC00",
"-	c #C70000",
";	c #FF2627",
">	c #EEBE93",
",	c #FFE1AF",
"'	c #5A2853",
")	c #CCD0CE",
"!	c #181626",
"~	c #CECECE",
"{	c #9D704C",
"]	c #D7906E",
"^	c #828189",
"/	c #F4F4F4",
"(	c #9F17AD",
"_	c #A0A0A0",
":	c #5F5F5F",
"<	c #FFFFFF",
"[	c #3DFD67",
"}	c #2EB545",
"|	c #15454A",
"1	c #1D796D",
"2	c #E8E8E8",
"3	c #C2C2C2",
"4	c #2F2F2F",
"5	c #6DFFA3",
"6	c #2BB68E",
"7	c #132529",
"                                                ",
"                                                ",
"                                                ",
"                                                ",
"                                                ",
"                                                ",
"                                                ",
"                                                ",
"                   .....    ....                ",
"              + ...@@@@@....@@@@.               ",
"             +#+@+$%%%%%$%.@%%%%@.              ",
"            +&*#+=+%%%%%%$.%$%%%$@.             ",
"            +&-**;=+%%%%%$.@%$$$%%.             ",
"           .@%%%%**#%%%%$$%.@%$%%%.             ",
"           .%%%%%%$$$$$$$%%%.%%%%%.             ",
"          .@%@%%%%%%%%%%%%%%.%%%%%.             ",
"          .@%@%%@%%@%%@%%%%%.%%%%%.             ",
"          .@@@%%@%%@%%%@%@%%.%%%%%.             ",
"           .@@@@@@@@@%%@@@@%%.%%%%%.            ",
"            .+>>,,,,,@%@++@@%.%%%%%.            ",
"             +>,,'''',@@>,+@%.@%%%%.            ",
"             +>,,)!~'',@{,+@@.@%%%@.            ",
"             +],,^!/',,@{>+@@.@@%%@.            ",
"             +{>,((,,,,@]+@@@.@@%%@.            ",
"              +]>,,,,,>]].@@...@%%@.            ",
"               +{]]>>>]]{{..@..@@%.             ",
"                ++++++++__::@.<.@@.             ",
"                +>,,[}|11223:@..@@.             ",
"               4}[55[_326132_:. .@@.            ",
"               4|1666763261__:   .@.            ",
"                7|||+[663261||7   .             ",
"                |1[+,,[113211|7                 ",
"               4}[1+,,}|772611|7                ",
"              :___6+]>]+|73261|7:               ",
"             :__3236+++11|7266||7::             ",
"            :_:_33_6666661|3261|77_:            ",
"            :__32222166661|:32223__:            ",
"             :__33221111||77::_3_::             ",
"                                                ",
"                                                ",
"                                                ",
"                                                ",
"                                                ",
"                                                ",
"                                                ",
"                                                ",
"                                                ",
"                                                "};
