/* XPM */
static char * player_01_xpm[] = {
"48 48 36 1",
" 	c None",
".	c #9C5369",
"+	c #534721",
"@	c #E07993",
"#	c #FFFC00",
"$	c #FFA3B0",
"%	c #FFD600",
"&	c #C70000",
"*	c #E3B700",
"=	c #FF2627",
"-	c #C79D00",
";	c #FECBD0",
">	c #D7906E",
",	c #EEBE93",
"'	c #FFE1AF",
")	c #5A2853",
"!	c #CECECE",
"~	c #181626",
"{	c #CCD0CE",
"]	c #9D704C",
"^	c #F4F4F4",
"/	c #828189",
"(	c #132529",
"_	c #9F17AD",
":	c #15454A",
"<	c #1D796D",
"[	c #2BB68E",
"}	c #E8E8E8",
"|	c #C2C2C2",
"1	c #A0A0A0",
"2	c #2EB545",
"3	c #3DFD67",
"4	c #6DFFA3",
"5	c #FFFFFF",
"6	c #2F2F2F",
"7	c #5F5F5F",
"                                                ",
"                                                ",
"                                                ",
"                                                ",
"                                                ",
"                                                ",
"                                                ",
"                                                ",
"                                                ",
"              ...     ..+..     ...             ",
"             .@@@. ..+@+#+@+.. .@@@.            ",
"            .@$$@..@+#+%%%+#+@..@$$@.           ",
"            .@$@.@$$%&**=**&%$$@.@$@.           ",
"           .@@@.@$$+-*$$$$$*-+$$@.@@@.          ",
"           .@@.@$$$-;;;;;;;;;-$$$@.@@.          ",
"           .@@.$$$$$$$$$$$$$$$$$$$.@@.          ",
"           .@.@$$@$$$$$$$$$$$$$@$$@.@.          ",
"           .@.@$@$$@$$@$$$@$$@$$@$@.@.          ",
"           .@.@@@$$@$$@$$$@$$@$$@@@.@.          ",
"            ..@+@$@@@@@@@@@@@@@$@+@.@@.         ",
"            ..+>@@,,''''''''',,@@>+.@@.         ",
"            .@+>@>))))'''''))))>@>+@@@.         ",
"            .@@+@))!~{'''''{~!))@+@@@@.         ",
"             .@@.])^~/'''''/~^)]..@@@@.         ",
"             .@@(+>,__'''''__,>+(.@@@@.         ",
"             .@(::+>,''''''',>+:<(.@@@.         ",
"             .(:<<:+]>,,,,,>]+:[[<(@@@.         ",
"             .(:[}|1+++++++++1|}[[(.@@.         ",
"             (11|<:<223,,,322<:[}[<(@@.         ",
"             +]2::(<[3343433[<(<[}[(.@.         ",
"             +]]+(((<[[<4<[[<((34}[(5..         ",
"             (++((62::::<::::2+''2}(5.          ",
"            (:17((62343[[[3432+'',}1(           ",
"            (<|7((2:231444132:+>,]+|(           ",
"           (:[}7(::<[1||||1[[<:+++7|:(          ",
"          (:<[}7:<[[|}}}}}||[[<::(71::(         ",
"         (:<[[}7:[[111|||111[[<::((7117         ",
"         71|}}7(:[[|}}}}}}}|1<<:(((777          ",
"          7777  (:<11||}}||11:((                ",
"                                                ",
"                                                ",
"                                                ",
"                                                ",
"                                                ",
"                                                ",
"                                                ",
"                                                ",
"                                                "};
